<?xml version="1.0" encoding="iso-8859-1"?>
<!-- Generator: Adobe Illustrator 19.0.0, SVG Export Plug-In . SVG Version: 6.00 Build 0)  -->
<svg version="1.1" id="Capa_1" xmlns="http://www.w3.org/2000/svg" xmlns:xlink="http://www.w3.org/1999/xlink" x="0px" y="0px"
	 viewBox="0 0 512 512" style="enable-background:new 0 0 512 512;" xml:space="preserve">
<path style="fill:#039FDD;" d="M204.468,390.839L52.391,451.436c-19.818,7.293-33.522,25.534-35.015,46.608L16.999,502h478
	l-0.354-3.759c-1.482-21.153-15.267-39.454-35.182-46.709l-157.122-60.693H204.468z"/>
<polygon style="fill:#5DDCF9;" points="302.407,395.46 296.137,502 210.738,502 204.468,395.46 "/>
<polygon style="fill:#FFFFFF;" points="204.468,390.839 208.066,456.591 255.899,421.15 298.854,455.833 302.34,390.839 "/>
<g>
	<path style="fill:#FFB68D;" d="M151.899,294.834c0,54.768,44.398,99.166,99.166,99.166h9.667c54.768,0,99.166-44.398,99.166-99.166
		v-87.711h-208v87.711H151.899z"/>
	<path style="fill:#FFB68D;" d="M375.491,249.769h-14.996v53.657h14.996c8.072,0,14.615-6.544,14.615-14.615v-24.426
		C390.106,256.312,383.563,249.769,375.491,249.769z"/>
	<path style="fill:#FFB68D;" d="M121.691,264.384v24.426c0,8.072,6.543,14.615,14.615,14.615h14.996v-53.657h-14.996
		C128.234,249.769,121.691,256.312,121.691,264.384z"/>
</g>
<path style="fill:#FF4A4A;" d="M456.238,257.266V199.56c0-7.912,6.474-14.386,14.386-14.386l0,0c7.912,0,14.386,6.474,14.386,14.386
	v57.707h-28.772V257.266z"/>
<polygon style="fill:#00298E;" points="139.046,169.96 40.983,120.154 255.899,10.998 470.816,120.154 372.552,170.062 "/>
<path style="fill:#0049A0;" d="M184.045,198.812c27.942,0,53.29,11.039,71.978,28.967c18.688-17.928,44.036-28.967,71.978-28.967
	c14.568,0,28.433,3,41.02,8.407v-88.51c0,0-54.285-18.07-113.122-18.07s-113.122,18.07-113.122,18.07v88.619
	C155.43,201.852,169.382,198.812,184.045,198.812z"/>
<g>
	<polygon style="fill:#72DD90;" points="123.898,425.097 151.535,502 210.738,502 204.468,395.46 	"/>
	<polygon style="fill:#72DD90;" points="302.407,395.46 296.137,502 355.34,502 382.978,425.097 	"/>
</g>
<path d="M504.955,501.061l-0.344-3.642c-1.799-24.977-18.126-46.645-41.634-55.25l-143.43-55.403
	c25.287-16.234,43.466-42.612,48.76-73.34h7.183c13.573,0,24.615-11.042,24.615-24.615v-24.426
	c0-13.573-11.042-24.615-24.615-24.615h-5.593v-22.587c1.647-0.135,3.26-0.674,4.684-1.611c2.809-1.85,4.5-4.988,4.5-8.352v-30.544
	l81.542-41.415v42.067c-8.473,3.826-14.387,12.349-14.387,22.232v57.707c0,5.523,4.478,10,10,10h28.772c5.522,0,10-4.477,10-10
	V199.56c0-9.883-5.914-18.406-14.386-22.232v-57.429c0-0.183-0.018-0.361-0.027-0.542c0.005-0.131,0.027-0.259,0.027-0.391
	c0-3.765-2.114-7.211-5.472-8.916L260.61,1.084c-2.846-1.445-6.211-1.445-9.057,0L37.013,110.049
	c-3.356,1.705-5.472,5.151-5.472,8.916s2.115,7.211,5.472,8.916l96.069,48.793v30.653c0,3.368,1.695,6.51,4.511,8.359
	c1.314,0.863,2.792,1.375,4.306,1.556v22.526h-5.593c-13.573,0-24.615,11.042-24.615,24.615v24.426
	c0,13.573,11.042,24.615,24.615,24.615h7.183c5.174,30.025,22.65,55.891,47.037,72.205L48.809,442.098
	c-23.355,8.652-39.587,30.259-41.398,55.109l-0.366,3.845c-0.267,2.804,0.661,5.591,2.557,7.676c1.893,2.084,4.58,3.272,7.397,3.272
	h478c2.815,0,5.501-1.187,7.396-3.269S505.219,503.864,504.955,501.061z M220.167,492l-1.8-30.595l37.27-27.614l32.933,26.59
	L286.708,492H220.167z M290.014,435.842l-27.832-22.472c-3.543-2.861-8.573-2.966-12.235-0.254l-32.909,24.383l-2.171-39.676
	C226.2,401.818,238.382,404,251.065,404h9.668c10.921,0,21.47-1.619,31.427-4.618L290.014,435.842z M375.491,259.769
	c2.545,0,4.615,2.07,4.615,4.615v24.426c0,2.545-2.07,4.615-4.615,4.615h-5.593v-33.657h5.593V259.769z M475.01,247.266h-8.772
	V199.56c0-2.377,2.009-4.386,4.387-4.386c2.377,0,4.386,2.008,4.386,4.386L475.01,247.266L475.01,247.266z M63.624,118.965
	l192.458-97.749l192.459,97.749l-69.459,35.278v-35.534c0-4.305-2.755-8.126-6.839-9.487c-1.471-0.49-36.539-12.058-81.339-16.706
	c-5.515-0.565-10.409,3.422-10.979,8.915c-0.57,5.493,3.421,10.408,8.914,10.979c31.329,3.25,58.158,10.222,70.242,13.71v66.959
	c-10.021-2.835-20.39-4.266-30.976-4.266c-26.414,0-51.613,9.034-71.9,25.614c-20.287-16.58-45.486-25.614-71.9-25.614
	c-10.674,0-21.125,1.455-31.224,4.338V126.12c12.25-3.536,39.646-10.649,71.526-13.841c5.495-0.55,9.504-5.451,8.954-10.946
	c-0.551-5.496-5.453-9.506-10.946-8.954c-45.433,4.549-81.195,16.343-82.695,16.843c-4.084,1.361-6.839,5.183-6.839,9.487v35.534
	L63.624,118.965z M131.69,288.81v-24.426c0-2.545,2.07-4.615,4.615-4.615h5.593v33.657h-5.593
	C133.761,293.425,131.69,291.355,131.69,288.81z M161.898,294.833v-83.325c7.282-1.788,14.774-2.697,22.407-2.697
	c24.32,0,47.395,9.297,64.974,26.179c1.936,1.858,4.431,2.788,6.927,2.788c2.496,0,4.991-0.929,6.927-2.788
	c17.579-16.881,40.653-26.179,64.974-26.179c7.418,0,14.704,0.856,21.792,2.545v83.477c0,49.167-40,89.167-89.166,89.167h-9.668
	C201.898,384,161.898,344,161.898,294.833z M55.845,460.82c0.083-0.031,0.165-0.063,0.247-0.095l61.217-24.392L137.315,492H28.364
	C31.651,477.8,41.906,465.95,55.845,460.82z M158.567,492L135.9,428.925l59.135-23.563L200.133,492H158.567z M306.742,492
	l5.107-86.768l59.396,22.943L348.309,492H306.742z M369.561,492l20.346-56.616l65.952,25.476c0.061,0.023,0.12,0.046,0.181,0.068
	c13.963,5.087,24.243,16.89,27.577,31.073H369.561V492z"/>
<path d="M256.082,110.639h0.427c5.522,0,10-4.477,10-10s-4.478-10-10-10h-0.427c-5.522,0-10,4.477-10,10
	S250.56,110.639,256.082,110.639z"/>
<path d="M297.421,278.28c6.37,0,11.552-5.182,11.552-11.551s-5.182-11.551-11.552-11.551c-6.369,0-11.551,5.182-11.551,11.551
	S291.052,278.28,297.421,278.28z"/>
<path d="M214.378,255.177c-6.37,0-11.552,5.182-11.552,11.551s5.182,11.551,11.552,11.551c6.369,0,11.551-5.182,11.551-11.551
	S220.747,255.177,214.378,255.177z"/>
<path d="M278.944,320.584c0-5.523-4.478-10-10-10h-0.427c-2.895,0-5.495,1.238-7.321,3.204c-0.935,0.522-2.662,1.213-5.289,1.213
	c-2.677,0-4.414-0.715-5.335-1.241c-1.825-1.95-4.414-3.176-7.295-3.176h-0.427c-5.522,0-10,4.477-10,10
	c0,3.64,1.951,6.816,4.858,8.565c3.173,2.43,9.231,5.852,18.199,5.852c9.042,0,15.127-3.478,18.278-5.912
	C277.037,327.326,278.944,324.182,278.944,320.584z"/>
<g>
</g>
<g>
</g>
<g>
</g>
<g>
</g>
<g>
</g>
<g>
</g>
<g>
</g>
<g>
</g>
<g>
</g>
<g>
</g>
<g>
</g>
<g>
</g>
<g>
</g>
<g>
</g>
<g>
</g>
</svg>
